# xmcd CD database file generated by MAGIX-FreeDB-PlayR v2.0beta1
# 
# Track frame offsets:
#      182
#      14720
#      29715
#      44420
#      58660
#      72912
#      88622
#      107560
#      118987
#      135275
#      147000
#      157322
# 
# Disc length: 2325 seconds
# 
# Revision: 1 
# Processed by: cddbd v1.5.2PL0 Copyright (c) Steve Scherf et al.
# Submitted via: MAGIX-FreeDB-PlayR v2.0beta1
# 
DISCID=b009130c
DTITLE=Milva - I Grandi Successi Originali cd1
DYEAR=1900
DGENRE=pop
TTITLE0=Milva - L'Immensità
TTITLE1=Milva - Io di notte
TTITLE2=Milva - Canzone
TTITLE3=Milva - Liptle man
TTITLE4=Milva - Aveva un cuore grande
TTITLE5=Milva - Albergo a ore
TTITLE6=Milva - Milord
TTITLE7=Milva - Caro John
TTITLE8=Milva - Inno all'amore
TTITLE9=Milva - La filanda
TTITLE10=Milva - Nulla rimpiangerò
TTITLE11=Milva - La pianura
EXTD=
EXTT0=
EXTT1=
EXTT2=
EXTT3=
EXTT4=
EXTT5=
EXTT6=
EXTT7=
EXTT8=
EXTT9=
EXTT10=
EXTT11=
PLAYORDER=
